<?xml version="1.0" encoding="UTF-8"?>
<svg id="Layer_1" xmlns="http://www.w3.org/2000/svg" version="1.1" viewBox="0 0 500 500">
  <!-- Generator: Adobe Illustrator 29.0.0, SVG Export Plug-In . SVG Version: 2.1.0 Build 186)  -->
  <defs>
    <style>
      .st0 {
        fill: #005b00;
      }

      .st1 {
        display: none;
      }

      .st2 {
        fill: #0c5f03;
      }
    </style>
  </defs>
  <g class="st1">
    <path class="st2" d="M128.66,68.37c57.22-.29,114.46,0,171.68-.14,6.71-.17,13.42,2.59,18.16,7.32,16.63,16.52,33.27,33.04,49.89,49.58,5.16,5.2,11.01,9.96,14.61,16.47,2.03,3.85,3.21,8.19,3.29,12.56-.03,54.95,0,109.89-.02,164.84-.25,3.69,2.43,6.61,3.49,9.99,9.84,26.07,3.62,57.29-15.07,77.91-10.37,11.67-24.5,19.93-39.8,23.06-20.76,4.58-43.72.59-60.81-12.35-1.47-.98-2.83-2.58-4.77-2.34-46.18-.02-92.37-.02-138.56,0-13.19-.8-24.45-12.38-25.04-25.56-.24-13.5-.05-27-.1-40.51,0-84.38,0-168.75,0-253.13-.09-5.63,1.16-11.34,4.32-16.07,4.06-6.43,11.21-10.69,18.72-11.62ZM125.44,96.09c.09,97.35-.03,194.71.07,292.05-.1,4.03,3.65,7.54,7.65,7.29,40.1.06,80.21-.06,120.33.06-14.18-23.45-14.03-54.61-.08-78.13,8.05-13.68,20.6-24.66,35.22-30.84,12.37-5.24,26.07-6.84,39.37-5.43,14.06,1.89,27.53,7.7,38.61,16.57.07-46.49-.02-92.97.05-139.46-14.42,0-28.85,0-43.27,0-12.38-.65-23.43-10.66-25.66-22.81-.83-3.76-.56-7.62-.58-11.44,0-11.94,0-23.87,0-35.81-54.4,0-108.8,0-163.2,0-4.42-.41-8.71,3.44-8.5,7.93ZM316.29,101.63c-.09,9.31-.05,18.63-.02,27.94-.1,4.6,3.96,9.14,8.71,8.86,9.38.06,18.76.12,28.13-.02-12.31-12.22-24.49-24.58-36.82-36.78ZM310.95,300.05c-16.51,2.17-32.11,11.76-40.74,26.12-5.49,8.77-8.32,19.03-8.75,29.34-.02,13.1,4.62,26.17,13.04,36.24,8.91,11.02,22.12,18.5,36.2,20.29,10.76,1.36,21.93-.21,31.76-4.85,15.03-6.96,26.59-21,30.49-37.1,2.61-11.22,2.1-23.32-2.08-34.1-4.5-11.86-13.44-21.74-24.13-28.4-10.59-6.61-23.45-9.09-35.78-7.51Z"/>
    <path class="st2" d="M164.45,141.64c30.69-.42,61.43-.02,92.14-.19,6.34-.09,11.36,7.12,9,13.05-1.27,4.16-5.5,6.91-9.78,6.81-27.87,0-55.74-.02-83.62.02-3.99,0-8.64.53-11.8-2.44-3.58-2.94-4.44-8.4-2.24-12.4,1.31-2.4,3.69-4.11,6.3-4.85Z"/>
    <path class="st2" d="M164.56,192.03c.51-.06,1.53-.18,2.04-.24,53.07.05,106.15,0,159.22.02,5.28-.05,10.26,4.74,9.68,10.15.31,4.9-3.99,9.46-8.87,9.56-53.6-.03-107.21-.02-160.81,0-5.08-.29-9.32-5.27-8.81-10.35-.03-4.33,3.33-8.28,7.55-9.14Z"/>
    <path class="st2" d="M163.69,242.78c2-.48,4.08-.21,6.13-.27,52.27.02,104.54,0,156.82.02,2.49-.07,4.83,1.26,6.53,3.01,3.61,4,3.21,11.08-1.15,14.4-3.28,2.77-7.84,1.93-11.78,2.03-49.35-.02-98.69,0-148.04,0-4.12-.06-8.95.74-12.17-2.47-5.34-4.7-3.45-14.91,3.66-16.71Z"/>
    <path class="st2" d="M339.59,331.19c3.37-4,10.04-4.65,13.9-.99,3.88,3.23,4.26,9.56.73,13.21-11.52,13.94-23.26,27.7-34.88,41.56-3.76,5.05-11.94,4.74-15.81-.02-6.86-6.66-13.61-13.44-20.45-20.13-3.59-3.17-3.71-9.23-.57-12.73,3.37-4.05,10.11-4.04,13.99-.73,5.14,4.19,9.77,8.95,14.47,13.63,9.45-11.34,19.04-22.57,28.62-33.8Z"/>
  </g>
  <g>
    <path class="st0" d="M224.46,64.13c1.09-3.73,4.89-6.24,8.73-6.03,11.25.05,22.49,0,33.74.02,3.59.16,6.71,2.95,7.51,6.44,2.49,8.75,5.08,17.47,7.5,26.24.18,1.52,2,1.4,3.11,1.79,10.32,2.09,20.34,5.43,30,9.57,7.54-6.15,15.13-12.21,22.63-18.41,2.77-2.59,7.57-2.63,10.38-.07,9.54,7.42,19.13,14.78,28.65,22.23,2.64,1.91,4.01,5.61,2.54,8.65-3.86,8.74-7.42,17.62-11.18,26.41,8.02,8.84,15.46,18.28,21.27,28.74.48,1.28,2.06.76,3.11.87,8.49-.34,16.98-1.1,25.49-.78,2.89.44,5.27,2.7,5.95,5.55,2.88,10.04,5.66,20.1,8.51,30.14.95,3.53,2.68,7.09,1.82,10.84-.89,2.28-3.02,3.64-4.96,4.96-6.8,4.46-13.61,8.89-20.34,13.44-.14,7.88.32,15.79-.37,23.64-.58,4.38-.34,8.81-.85,13.2,7.13,5.61,14.38,11.07,21.64,16.52,2.85,2.01,4.4,5.93,2.84,9.21-4.74,10.4-9.23,20.92-13.79,31.4-1.4,4.19-4.22,9.26-9.42,8.57-8.16-.39-16.28-1.74-24.45-1.67-7.25,10.33-15.58,19.98-25.37,27.98,2.64,9.29,5.25,18.6,7.86,27.9,1.17,3.28-.35,7.09-3.35,8.79-9.04,5.72-18.11,11.39-27,17.34-2.53,1.53-5.01,3.84-8.18,3.4-2.88.17-4.92-2.19-6.9-3.89-6.98-5.85-13.83-11.85-20.87-17.62-8.22,3.13-16.84,4.94-25.41,6.72-3.53,8.82-7.17,17.6-10.64,26.46-1.17,3.05-4.06,5.83-7.54,5.54-7.81-.05-15.63-.02-23.44.11,21.01-21.3,42.05-42.6,63.63-63.31,8.9-8.69,17.88-17.32,26.59-26.21,2.08-.47,4.16.42,6.23.66,16.01,2.91,33.14-.71,46.49-10.05,12.8-8.64,22.02-22.1,26.37-36.83,1.74-6.21,3.15-12.87,1.49-19.24-1.66-5.72-5.37-11.16-10.9-13.68-4.03-1.95-8.86-1.86-12.93-.11-3.3,1.21-5.94,3.56-8.77,5.57,2.97-18.84,3.13-38.35-1.54-56.94-7.86-31.56-28.92-59.61-57.22-75.69-38.43-22.18-88.77-22.17-126.84.81-22.96,13.65-41.3,35.02-50.81,60.02-8.73,22.42-10.57,47.36-5.98,70.92,5,25.78,19.05,49.53,38.98,66.6,6.59-6.66,14.47-11.96,22.97-15.87,13.36-6.41,27.88-10,42.4-12.64.37-10.58,1.52-21.14,1.08-31.74.3-5.77-.86-11.45-.9-17.2-11.56-1.77-22.83-5.91-32.29-12.86-17.42-12.52-29.49-31.77-34.5-52.51-1.7-6.31-2.26-12.84-2.96-19.32,9.28.48,18.19,3.63,26.78,6.99,11.23,4.65,21.91,10.91,30.86,19.2,10.11,9.83,16.41,23.12,19.09,36.87.75,3.13.59,6.44,1.67,9.51,1.01-19.27,8.92-37.84,20.92-52.83,14.55-17.47,34.58-30.5,56.66-36.08,7.78,36.94-13.85,76.91-47.81,92.58-6.21,2.73-12.81,4.79-19.6,5.38,8.46-26.74,25-50.16,44.24-70.25,2.57-2.64,5.32-5.14,7.54-8.09-5.76,3.98-10.75,8.97-15.97,13.62-15.04,14-28.12,30.63-35.37,50.02-9.01,21.33-7.95,45.04-5.96,67.61,4.24.61,8.47,1.4,12.55,2.73-23.99,21.75-47.39,44.17-71.11,66.22-4.42,4.61-9.81,8.29-13.54,13.54-4.82,6.43-7.16,14.32-8.27,22.17-9.17-4.7-17.91-10.18-26.77-15.43-2.13-1.35-4.61-2.41-6.1-4.54-1.73-2.19-1.15-5.23-.48-7.71,2.5-8.64,4.7-17.38,7.44-25.95-9.33-8.5-17.83-17.98-24.66-28.62-9.47.48-18.96.76-28.43,1.17-2.58-.21-5.11-1.81-5.88-4.37-4.51-11.94-8.81-23.96-13.36-35.88-1.14-2.93-.48-6.53,2.07-8.51,6.65-5.71,13.53-11.15,20.32-16.69-1.19-12.2-1.67-24.49-1.23-36.74-6.86-4.69-13.64-9.48-20.42-14.28-4.17-2.21-4.67-7.39-2.99-11.38,3.18-11.03,6.36-22.07,9.59-33.08.93-3.8,4.78-6.33,8.6-6.1,7.95.27,15.9.22,23.85.26,1.3.25,1.8-1.13,2.39-1.97,5.74-9.65,12.46-18.67,19.69-27.24-3.6-8.59-7.13-17.23-10.82-25.79-1.47-3.06-.46-6.87,2.31-8.82,9.78-7.77,19.62-15.47,29.42-23.21,1.74-1.35,4.1-1.97,6.27-1.42,2.5.48,4.33,2.43,6.34,3.87,6.86,5.65,13.98,10.96,20.92,16.5,9.97-4.05,20.14-7.84,30.79-9.64.16-.26.49-.78.65-1.04,2.72-9.03,5.17-18.14,8.03-27.13ZM190.51,201.6c6.92,7.88,14.92,14.8,21.81,22.72,6.31,7.17,12.23,14.68,17.72,22.49,1.63,2.33,2.95,4.93,4.97,6.97-7.42-16.61-17.94-32.28-32.51-43.45-3.98-2.93-7.68-6.32-12-8.73Z"/>
    <path class="st0" d="M321.67,233.53c11.12-4.6,23.95-5.37,35.34-1.21,1.96.81,4.37,1.39,5.15,3.64-6.03,6.12-12.49,11.79-18.67,17.76-4.74,4.83-9.85,9.28-14.72,13.98-1.72,1.6-.88,4.24-1.21,6.34-.57,7.95,2.29,16.06,7.75,21.88,5.12,5.29,12.12,8.67,19.44,9.51,2.13.11,4.67,1.44,6.49-.25,9.78-7.26,19.49-14.6,29.02-22.18,2.83,4.84,1.03,10.62-.11,15.7-3.35,13.9-12.53,26.55-25.54,32.81-13.47,6.99-29.65,7.56-44.03,3.23-11.75,12.16-23.99,23.85-35.92,35.83-10.79,10.56-21.14,21.54-31.96,32.07-9.43,9.17-19.05,18.16-27.89,27.91-4.76,5.19-10.58,10.15-17.83,11.07-6.6,1.17-13.54-.98-18.63-5.24-6.07-5.3-9.43-13.71-8.25-21.73,1.26-7.31,5.93-13.44,11.1-18.53,4.34-4.13,8.77-8.18,13.08-12.35,18.26-18.14,37.23-35.54,55.84-53.34,9.42-9.7,19.75-18.48,28.9-28.44-3.05-8.58-3.27-17.9-2.04-26.84,2.82-18.9,17.4-34.48,34.7-41.61ZM193.7,418.5c-.07,6.26,6.12,12,12.44,10.61,6.91-1.56,10.74-8.17,15.6-12.72-7.76-1.72-14.54-6.64-19.1-13.07-4.58,3.75-9.32,8.8-8.94,15.17Z"/>
  </g>
</svg>