<?xml version="1.0" encoding="UTF-8"?>
<svg id="Layer_1" xmlns="http://www.w3.org/2000/svg" version="1.1" viewBox="0 0 500 500">
  <!-- Generator: Adobe Illustrator 29.0.0, SVG Export Plug-In . SVG Version: 2.1.0 Build 186)  -->
  <defs>
    <style>
      .st0 {
        fill: #0c5f03;
      }
    </style>
  </defs>
  <path class="st0" d="M128.66,68.37c57.22-.29,114.46,0,171.68-.14,6.71-.17,13.42,2.59,18.16,7.32,16.63,16.52,33.27,33.04,49.89,49.58,5.16,5.2,11.01,9.96,14.61,16.47,2.03,3.85,3.21,8.19,3.29,12.56-.03,54.95,0,109.89-.02,164.84-.25,3.69,2.43,6.61,3.49,9.99,9.84,26.07,3.62,57.29-15.07,77.91-10.37,11.67-24.5,19.93-39.8,23.06-20.76,4.58-43.72.59-60.81-12.35-1.47-.98-2.83-2.58-4.77-2.34-46.18-.02-92.37-.02-138.56,0-13.19-.8-24.45-12.38-25.04-25.56-.24-13.5-.05-27-.1-40.51,0-84.38,0-168.75,0-253.13-.09-5.63,1.16-11.34,4.32-16.07,4.06-6.43,11.21-10.69,18.72-11.62ZM125.44,96.09c.09,97.35-.03,194.71.07,292.05-.1,4.03,3.65,7.54,7.65,7.29,40.1.06,80.21-.06,120.33.06-14.18-23.45-14.03-54.61-.08-78.13,8.05-13.68,20.6-24.66,35.22-30.84,12.37-5.24,26.07-6.84,39.37-5.43,14.06,1.89,27.53,7.7,38.61,16.57.07-46.49-.02-92.97.05-139.46-14.42,0-28.85,0-43.27,0-12.38-.65-23.43-10.66-25.66-22.81-.83-3.76-.56-7.62-.58-11.44,0-11.94,0-23.87,0-35.81-54.4,0-108.8,0-163.2,0-4.42-.41-8.71,3.44-8.5,7.93ZM316.29,101.63c-.09,9.31-.05,18.63-.02,27.94-.1,4.6,3.96,9.14,8.71,8.86,9.38.06,18.76.12,28.13-.02-12.31-12.22-24.49-24.58-36.82-36.78ZM310.95,300.05c-16.51,2.17-32.11,11.76-40.74,26.12-5.49,8.77-8.32,19.03-8.75,29.34-.02,13.1,4.62,26.17,13.04,36.24,8.91,11.02,22.12,18.5,36.2,20.29,10.76,1.36,21.93-.21,31.76-4.85,15.03-6.96,26.59-21,30.49-37.1,2.61-11.22,2.1-23.32-2.08-34.1-4.5-11.86-13.44-21.74-24.13-28.4-10.59-6.61-23.45-9.09-35.78-7.51Z"/>
  <path class="st0" d="M164.45,141.64c30.69-.42,61.43-.02,92.14-.19,6.34-.09,11.36,7.12,9,13.05-1.27,4.16-5.5,6.91-9.78,6.81-27.87,0-55.74-.02-83.62.02-3.99,0-8.64.53-11.8-2.44-3.58-2.94-4.44-8.4-2.24-12.4,1.31-2.4,3.69-4.11,6.3-4.85Z"/>
  <path class="st0" d="M164.56,192.03c.51-.06,1.53-.18,2.04-.24,53.07.05,106.15,0,159.22.02,5.28-.05,10.26,4.74,9.68,10.15.31,4.9-3.99,9.46-8.87,9.56-53.6-.03-107.21-.02-160.81,0-5.08-.29-9.32-5.27-8.81-10.35-.03-4.33,3.33-8.28,7.55-9.14Z"/>
  <path class="st0" d="M163.69,242.78c2-.48,4.08-.21,6.13-.27,52.27.02,104.54,0,156.82.02,2.49-.07,4.83,1.26,6.53,3.01,3.61,4,3.21,11.08-1.15,14.4-3.28,2.77-7.84,1.93-11.78,2.03-49.35-.02-98.69,0-148.04,0-4.12-.06-8.95.74-12.17-2.47-5.34-4.7-3.45-14.91,3.66-16.71Z"/>
  <path class="st0" d="M339.59,331.19c3.37-4,10.04-4.65,13.9-.99,3.88,3.23,4.26,9.56.73,13.21-11.52,13.94-23.26,27.7-34.88,41.56-3.76,5.05-11.94,4.74-15.81-.02-6.86-6.66-13.61-13.44-20.45-20.13-3.59-3.17-3.71-9.23-.57-12.73,3.37-4.05,10.11-4.04,13.99-.73,5.14,4.19,9.77,8.95,14.47,13.63,9.45-11.34,19.04-22.57,28.62-33.8Z"/>
</svg>